<svg width="19" height="15" viewBox="0 0 19 15" fill="none" xmlns="http://www.w3.org/2000/svg">
<path d="M0.0786865 1.99498C0.0457386 2.26118 0.00406913 2.44035 0.00406913 2.61953C0.000192907 5.76173 -0.00271426 8.90393 0.00406913 12.0461C0.00600725 12.9 0.339363 13.5973 0.974095 14.1297C1.47994 14.5546 2.06913 14.6826 2.69902 14.6826C7.23808 14.6805 11.7762 14.6815 16.3152 14.6805C16.4286 14.6805 16.541 14.6744 16.6534 14.6652C18.0169 14.5464 18.9869 13.4765 18.9927 12.0308C19.0053 8.90598 18.9985 5.78016 18.9947 2.65536C18.9947 2.468 18.953 2.28063 18.922 2.01648C18.7437 2.16698 18.6439 2.24889 18.546 2.3349C16.1049 4.49113 13.6658 6.65043 11.2219 8.8036C10.1113 9.78137 8.89323 9.78035 7.79528 8.81281C6.26999 7.46747 4.74857 6.11803 3.22424 4.77064C2.19898 3.86453 1.17178 2.95945 0.0786865 1.99498ZM1.21733 0.273881C1.21733 0.333264 1.21733 0.392647 1.21733 0.452031C1.33846 0.563631 1.45765 0.676255 1.58072 0.784783C4.01887 2.94409 6.45702 5.10237 8.89516 7.26167C9.40295 7.71114 9.5987 7.71319 10.1084 7.2627C11.4593 6.06991 12.8092 4.87712 14.1591 3.68331C15.3704 2.61236 16.5807 1.53936 17.7911 0.466365C17.793 0.410053 17.794 0.354765 17.7959 0.298453C17.3211 0.200163 16.8463 0.0179174 16.3714 0.0158697C11.7859 -0.00563119 7.20028 -0.00460734 2.61471 0.0148459C2.14762 0.0168936 1.68248 0.183782 1.21733 0.273881Z" fill="white"/>
<path d="M0.0786865 1.99609C1.17178 2.96056 2.19898 3.86565 3.22424 4.77278C4.74857 6.11915 6.26999 7.46859 7.79528 8.81393C8.89226 9.78249 10.1113 9.78249 11.2219 8.80471C13.6658 6.65155 16.1049 4.49225 18.546 2.33601C18.6429 2.25001 18.7437 2.1681 18.922 2.01759C18.953 2.28072 18.9947 2.46911 18.9947 2.65648C18.9985 5.78128 19.0053 8.9071 18.9927 12.0319C18.9869 13.4776 18.0169 14.5475 16.6534 14.6663C16.541 14.6765 16.4276 14.6816 16.3152 14.6816C11.7762 14.6827 7.23808 14.6816 2.69902 14.6837C2.06913 14.6837 1.47994 14.5547 0.974095 14.1308C0.340332 13.5984 0.00600725 12.9011 0.00406913 12.0483C-0.00271426 8.90608 0.000192907 5.76387 0.00406913 2.62167C0.00503819 2.44147 0.0457386 2.2623 0.0786865 1.99609Z" fill="#0BA13D"/>
<path d="M1.21777 0.273881C1.68292 0.183782 2.14904 0.0168936 2.61418 0.0148459C7.19976 -0.00460734 11.7853 -0.00563119 16.3709 0.0158697C16.8457 0.0179174 17.3206 0.200163 17.7954 0.298453C17.7935 0.354765 17.7925 0.410053 17.7906 0.466365C16.5802 1.53834 15.3699 2.61134 14.1586 3.68331C12.8087 4.87712 11.4588 6.06991 10.1079 7.2627C9.59721 7.71319 9.40242 7.71217 8.89464 7.26167C6.45746 5.10339 4.01835 2.94409 1.58117 0.785807C1.4581 0.677279 1.33891 0.563631 1.21777 0.453055C1.21777 0.392648 1.21777 0.333264 1.21777 0.273881Z" fill="#0BA13D"/>
</svg>
