<svg width="17" height="18" viewBox="0 0 17 18" fill="none" xmlns="http://www.w3.org/2000/svg">
<path d="M16.9998 8.57436C16.9672 13.2845 13.154 17.0339 8.42835 17.0027C3.77917 16.9729 -0.0127209 13.1371 3.20745e-05 8.47659C0.0127851 3.80474 3.87695 -0.0211669 8.56155 8.81366e-05C13.2476 0.0213432 17.0324 3.8685 16.9998 8.57436ZM14.8729 8.48367C14.8559 4.944 11.9907 2.10859 8.45102 2.12984C4.98362 2.14826 2.11136 5.05736 2.12837 8.53468C2.14537 12.0588 5.02613 14.8942 8.57147 14.8758C12.07 14.8573 14.8899 11.9978 14.8729 8.48367Z" fill="#0BA13D"/>
<path d="M7.40532 9.21497C8.60268 8.00627 9.67394 6.91659 10.7537 5.83542C11.3304 5.2587 11.9695 5.18219 12.4286 5.61721C12.9075 6.06923 12.8424 6.7423 12.2444 7.34453C10.9648 8.63117 9.68244 9.91355 8.39439 11.1903C7.71139 11.8676 7.20552 11.869 6.52111 11.2002C5.89763 10.5909 5.27698 9.97873 4.67192 9.35242C4.15755 8.81963 4.12921 8.24007 4.56281 7.7838C4.99358 7.32894 5.6454 7.36012 6.18953 7.86882C6.39641 8.06153 6.59763 8.25991 6.78751 8.46963C6.97597 8.67793 7.14742 8.90323 7.40532 9.21497Z" fill="#0BA13D"/>
</svg>
