<svg width="19" height="25" viewBox="0 0 19 25" fill="none" xmlns="http://www.w3.org/2000/svg">
<path d="M10.4359 24.5193C9.81866 25.1739 8.7722 25.1568 8.17209 24.4873C7.32851 23.5465 6.50095 22.6261 5.72038 21.6661C3.636 19.1055 1.83352 16.3655 0.725123 13.2239C-0.310661 10.2906 -0.328814 7.41393 1.27398 4.64615C3.22061 1.28466 7.18542 -0.558397 10.9473 0.150634C14.9057 0.897039 17.917 3.97983 18.5267 7.89552C18.8962 10.2703 18.327 12.485 17.366 14.6217C15.6927 18.3345 13.2752 21.5081 10.4359 24.5193ZM9.31252 13.2773C11.4951 13.2784 13.2592 11.5346 13.2688 9.36484C13.2795 7.18222 11.4802 5.3776 9.30291 5.38828C7.14698 5.39896 5.37013 7.18756 5.3712 9.34668C5.37334 11.5176 7.1363 13.2763 9.31252 13.2773Z" fill="#0BA13D"/>
</svg>
