<svg width="20" height="20" viewBox="0 0 20 20" fill="none" xmlns="http://www.w3.org/2000/svg">
<path d="M5.0607 8.04399C6.46504 11.2455 8.74882 13.5327 11.9468 14.944C12.2047 14.5616 12.455 14.1904 12.706 13.8192C12.8902 13.5466 13.0661 13.2672 13.2608 13.0023C13.9192 12.1075 15.1406 11.8009 16.1146 12.3411C17.1818 12.9328 18.2253 13.5682 19.2626 14.2099C19.8563 14.5776 20.1052 15.2624 19.9592 15.9528C19.4357 18.4319 17.2666 20.1109 14.7367 19.9809C13.8621 19.9357 13.0404 19.6437 12.2353 19.3322C6.08892 16.9574 2.06223 12.6074 0.196959 6.29135C-0.63313 3.4792 1.25091 0.542599 4.15135 0.0302241C4.8563 -0.0942197 5.45002 0.167877 5.82891 0.774801C6.45183 1.77383 7.05458 2.78676 7.63161 3.8122C8.21212 4.84391 7.9243 6.07514 6.95864 6.76549C6.34615 7.20347 5.71003 7.60878 5.0607 8.04399Z" fill="#0BA13D"/>
<path d="M12.4078 0.27117C16.0244 0.346949 19.1417 3.10348 19.6395 6.67412C19.6882 7.0252 19.7222 7.38046 19.7306 7.73432C19.7417 8.22236 19.3871 8.59222 18.9234 8.61169C18.4681 8.63115 18.085 8.30996 18.0627 7.82401C18.0231 6.95846 17.8966 6.11655 17.5073 5.33513C16.4839 3.28146 14.8328 2.14756 12.5358 1.97097C12.4148 1.96194 12.2931 1.96124 12.1722 1.94734C11.689 1.89172 11.3692 1.5316 11.3928 1.07484C11.4165 0.618778 11.7759 0.282293 12.2514 0.271865C12.3036 0.270475 12.3557 0.27117 12.4078 0.27117Z" fill="#0BA13D"/>
<path d="M12.3512 3.6038C14.384 3.6476 16.1388 5.25147 16.3571 7.27594C16.3842 7.52969 16.3974 7.79944 16.3425 8.04485C16.2611 8.40567 15.8788 8.63509 15.5068 8.61006C15.1147 8.58364 14.8012 8.30556 14.7407 7.91971C14.7045 7.6889 14.7004 7.45183 14.6482 7.22588C14.3959 6.12744 13.5115 5.38008 12.3846 5.30013C11.8333 5.26051 11.5156 5.05264 11.4189 4.66818C11.2709 4.08003 11.6998 3.5899 12.3512 3.6038Z" fill="#0BA13D"/>
</svg>
