<svg width="22" height="22" viewBox="0 0 22 22" fill="none" xmlns="http://www.w3.org/2000/svg">
<path d="M10.969 21.9689C8.51699 21.9689 6.06606 21.9709 3.6141 21.9689C1.38131 21.9668 0.00664765 20.5829 0.0025319 18.3388C0.00150297 17.4127 -0.00364172 16.4877 0.00458978 15.5617C0.0107634 14.7756 0.438802 14.2817 1.10041 14.2765C1.76716 14.2704 2.21063 14.7571 2.21989 15.538C2.23121 16.532 2.21681 17.527 2.22504 18.5209C2.23224 19.3646 2.61089 19.7454 3.45256 19.7464C8.47583 19.7495 13.4981 19.7495 18.5214 19.7464C19.3682 19.7454 19.7499 19.3657 19.7561 18.5291C19.7633 17.5177 19.7448 16.5063 19.7633 15.4948C19.7797 14.5523 20.6183 13.9658 21.354 14.4175C21.6329 14.5893 21.9241 14.9896 21.9395 15.2993C21.9992 16.5299 22.0455 17.7739 21.923 18.9963C21.7399 20.8226 20.3796 21.9576 18.5296 21.9668C16.0087 21.9792 13.4888 21.9689 10.969 21.9689Z" fill="#FAC000"/>
<path d="M9.88057 13.6694C9.88057 13.3299 9.88057 12.9903 9.88057 12.6508C9.88057 8.93221 9.88057 5.2126 9.88057 1.49402C9.88057 0.541221 10.2808 0 10.9856 0C11.6936 0 12.1 0.538135 12.1 1.48373C12.101 5.37414 12.101 9.26456 12.102 13.1539C12.102 13.3237 12.102 13.4945 12.102 13.8145C12.6155 13.3021 13.0343 12.8689 13.4685 12.4522C13.8409 12.0941 14.2782 12.0108 14.7402 12.2608C15.1734 12.4965 15.3967 12.8844 15.2969 13.371C15.2455 13.6221 15.1014 13.8886 14.9224 14.0748C13.8986 15.1346 12.8573 16.178 11.8109 17.2162C11.2964 17.7265 10.6924 17.7307 10.1769 17.2213C9.1171 16.1728 8.06655 15.1151 7.02321 14.0491C6.5324 13.548 6.53035 12.8988 6.98514 12.4481C7.44816 11.9902 8.06346 12.0098 8.57793 12.516C8.97819 12.9101 9.36301 13.3206 9.75401 13.7229C9.79825 13.7065 9.83941 13.688 9.88057 13.6694Z" fill="#FAC000"/>
</svg>
