<svg width="32" height="33" viewBox="0 0 32 33" fill="none" xmlns="http://www.w3.org/2000/svg">
<path d="M22.4404 31.6654H0.540415V27.6552L22.4404 26.701V31.6654ZM24.7655 17.0353C24.7655 12.1769 24.7655 7.32381 24.8298 2.61914C27.4611 3.84503 29.723 5.74709 31.3804 8.13442V31.7053H24.6978C24.7654 26.9155 24.7654 21.9737 24.7655 17.0372V17.0353ZM22.4404 6.7306C12.7425 5.51773 5.85009 7.90108 0.500771 11.8747C0.495522 11.2966 0.517406 10.7025 0.540068 10.0944L0.540675 10.0781C0.571911 9.24001 0.604154 8.37492 0.557007 7.53306C8.97847 1.05144 16.054 0.209519 22.4404 1.83909V6.7306ZM0.540415 18.4123V14.3952C8.16845 10.0518 15.496 8.83526 22.4404 10.0714V15.2013C14.0327 13.9901 6.76923 15.1267 0.540415 18.4123ZM0.540415 25.2936V20.7027C7.59377 18.3907 15.052 17.5688 22.4404 18.289V23.4003C15.0866 22.9503 7.70671 23.5884 0.540415 25.2936Z" stroke="white"/>
</svg>
