<svg width="233" height="55" viewBox="0 0 233 55" fill="none" xmlns="http://www.w3.org/2000/svg">
<path d="M102.698 19.3621C102.698 27.1659 96.3708 33.4927 88.5268 33.4927C81.9727 33.4927 76.4412 29.0215 74.8506 22.9598H79.0188C79.549 24.2853 80.3064 25.4972 81.3691 26.5599C83.2627 28.4535 85.8403 29.5139 88.5291 29.5139C91.2582 29.5139 93.7956 28.4535 95.727 26.5599C97.1661 25.1208 98.1152 23.3007 98.4916 21.3692H88.5268V17.3549H98.4916C98.1129 15.4235 97.1661 13.6033 95.727 12.1642C93.7956 10.2707 91.2582 9.21027 88.5291 9.21027C85.8403 9.21027 83.2627 10.2707 81.3691 12.1642C80.3087 13.2246 79.5513 14.4365 79.0188 15.7643H74.8506C76.4412 9.70259 81.9727 5.23145 88.5268 5.23145C96.3708 5.23145 102.698 11.5583 102.698 19.3621Z" fill="white"/>
<path d="M109.105 32.6593H105.202V6.14014H109.105V16.5594H124.677V6.14014H128.58V32.6593H124.677V20.4601H109.105V32.6593Z" fill="white"/>
<path d="M156.084 10.2325L136.081 19.3618L156.084 28.4556V32.9267L135.324 23.53V32.6616H131.421V6.14008H135.324V15.2315L156.084 5.79688V10.2325Z" fill="white"/>
<path d="M170.674 33.5304C162.832 33.5304 156.503 27.1657 156.503 19.3619C156.503 11.5202 162.83 5.19336 170.674 5.19336C178.478 5.19336 184.842 11.5202 184.842 19.3619C184.842 27.1657 178.478 33.5304 170.674 33.5304ZM163.476 26.5218C165.407 28.4533 167.945 29.5137 170.674 29.5137C173.401 29.5137 175.94 28.4533 177.872 26.5218C179.803 24.6283 180.828 22.0507 180.828 19.3619C180.828 16.6351 179.805 14.0575 177.872 12.164C175.94 10.2326 173.401 9.17218 170.674 9.17218C167.945 9.17218 165.407 10.2326 163.476 12.164C161.545 14.0575 160.482 16.6351 160.482 19.3619C160.482 22.0507 161.542 24.6283 163.476 26.5218Z" fill="white"/>
<path d="M201.326 33.4927C193.522 33.4927 187.195 27.1659 187.195 19.3621C187.195 11.5583 193.522 5.23145 201.326 5.23145C207.956 5.23145 213.525 9.77834 215.078 15.9158H210.91C210.379 14.5146 209.584 13.2648 208.524 12.1642C206.592 10.2707 204.053 9.21027 201.326 9.21027C198.637 9.21027 196.06 10.2707 194.166 12.1642C192.235 14.0956 191.174 16.6354 191.174 19.3621C191.174 22.0912 192.235 24.6285 194.166 26.5599C196.06 28.4535 198.637 29.5139 201.326 29.5139C204.055 29.5139 206.592 28.4535 208.524 26.5599C209.546 25.5374 210.304 24.3634 210.796 23.0734H215.002C213.374 29.0618 207.882 33.4927 201.326 33.4927Z" fill="white"/>
<path d="M226.105 10.0409V32.6593H222.24V10.0409H215.345V6.14014H233V10.0432H226.105V10.0409Z" fill="white"/>
<path d="M84.3851 45.0737V52.1461H83.5117V46.5531L80.6477 51.2869H80.2169L77.3529 46.5412V52.1485H76.4795V45.0761H77.4476L80.4465 50.1721L83.4998 45.0761H84.3851V45.0737Z" fill="white"/>
<path d="M90.1936 51.7487C89.6469 51.4386 89.2161 51.0102 88.9036 50.4634C88.5888 49.9167 88.4326 49.2989 88.4326 48.6077C88.4326 47.9166 88.5888 47.2988 88.9036 46.7521C89.2184 46.2053 89.6469 45.7792 90.1936 45.4739C90.7404 45.1686 91.3534 45.0171 92.0351 45.0171C92.7168 45.0171 93.3298 45.1686 93.8766 45.4739C94.4233 45.7792 94.8518 46.2053 95.1618 46.7521C95.4719 47.2988 95.6257 47.9166 95.6257 48.6077C95.6257 49.2989 95.4719 49.9167 95.1618 50.4634C94.8518 51.0102 94.4233 51.4386 93.8766 51.7487C93.3298 52.0587 92.7168 52.2126 92.0351 52.2126C91.3534 52.2126 90.7404 52.0587 90.1936 51.7487ZM93.3866 51.0244C93.7843 50.7948 94.0967 50.4705 94.3216 50.0492C94.5464 49.6279 94.6577 49.1474 94.6577 48.6101C94.6577 48.0728 94.5464 47.5923 94.3216 47.171C94.0967 46.7497 93.7866 46.4254 93.3866 46.1958C92.9866 45.9662 92.5369 45.8526 92.0351 45.8526C91.5333 45.8526 91.0836 45.9662 90.6836 46.1958C90.2859 46.4254 89.9711 46.7497 89.7439 47.171C89.5143 47.5923 89.4007 48.0728 89.4007 48.6101C89.4007 49.1474 89.5143 49.6279 89.7439 50.0492C89.9735 50.4705 90.2859 50.7948 90.6836 51.0244C91.0836 51.254 91.5333 51.3676 92.0351 51.3676C92.5369 51.3652 92.9866 51.2516 93.3866 51.0244Z" fill="white"/>
<path d="M99.6846 45.0737H100.641V48.2076H105.091V45.0737H106.047V52.1461H105.091V49.0265H100.641V52.1461H99.6846V45.0737Z" fill="white"/>
<path d="M110.778 45.0737H111.735V50.6952L116.454 45.0737H117.302V52.1461H116.348V46.5247L111.642 52.1461H110.781V45.0737H110.778Z" fill="white"/>
<path d="M127.023 45.9211H124.348V52.1461H123.392V45.9211H120.715V45.0737H127.02V45.9211H127.023Z" fill="white"/>
<path d="M131.177 51.7487C130.63 51.4386 130.199 51.0102 129.887 50.4634C129.572 49.9167 129.416 49.2989 129.416 48.6077C129.416 47.9166 129.572 47.2988 129.887 46.7521C130.202 46.2053 130.63 45.7792 131.177 45.4739C131.724 45.1686 132.337 45.0171 133.018 45.0171C133.7 45.0171 134.313 45.1686 134.86 45.4739C135.407 45.7792 135.835 46.2053 136.145 46.7521C136.455 47.2988 136.609 47.9166 136.609 48.6077C136.609 49.2989 136.455 49.9167 136.145 50.4634C135.835 51.0102 135.407 51.4386 134.86 51.7487C134.313 52.0587 133.7 52.2126 133.018 52.2126C132.339 52.2126 131.724 52.0587 131.177 51.7487ZM134.372 51.0244C134.77 50.7948 135.082 50.4705 135.307 50.0492C135.532 49.6279 135.643 49.1474 135.643 48.6101C135.643 48.0728 135.532 47.5923 135.307 47.171C135.082 46.7497 134.772 46.4254 134.372 46.1958C133.972 45.9662 133.523 45.8526 133.021 45.8526C132.519 45.8526 132.069 45.9662 131.669 46.1958C131.272 46.4254 130.957 46.7497 130.73 47.171C130.5 47.5923 130.386 48.0728 130.386 48.6101C130.386 49.1474 130.5 49.6279 130.73 50.0492C130.959 50.4705 131.272 50.7948 131.669 51.0244C132.069 51.254 132.519 51.3676 133.021 51.3676C133.523 51.3652 133.972 51.2516 134.372 51.0244Z" fill="white"/>
<path d="M146.117 45.4692C146.655 45.7698 147.076 46.1935 147.381 46.7402C147.687 47.287 147.838 47.9095 147.838 48.6101C147.838 49.3178 147.687 49.9451 147.381 50.4918C147.076 51.0386 146.657 51.4623 146.124 51.7629C145.592 52.0635 144.988 52.2126 144.316 52.2126C143.743 52.2126 143.225 52.0942 142.763 51.8552C142.302 51.6185 141.923 51.2705 141.627 50.8137V54.7523H140.671V45.0715H141.585V46.4704C141.871 46.0041 142.25 45.6467 142.721 45.3934C143.192 45.1425 143.722 45.0171 144.314 45.0171C144.979 45.0195 145.58 45.1686 146.117 45.4692ZM145.592 51.0244C145.997 50.7948 146.311 50.4705 146.541 50.0492C146.77 49.6279 146.884 49.1474 146.884 48.6101C146.884 48.0728 146.77 47.5947 146.541 47.1781C146.311 46.7615 145.997 46.4373 145.592 46.2029C145.189 45.971 144.74 45.8526 144.247 45.8526C143.746 45.8526 143.296 45.9686 142.896 46.2029C142.496 46.4349 142.183 46.7615 141.954 47.1781C141.724 47.5947 141.611 48.0728 141.611 48.6101C141.611 49.1474 141.724 49.6279 141.954 50.0492C142.183 50.4705 142.496 50.7948 142.896 51.0244C143.293 51.254 143.746 51.3676 144.247 51.3676C144.74 51.3652 145.189 51.2516 145.592 51.0244Z" fill="white"/>
<path d="M151.911 45.0737H152.867V50.6952L157.587 45.0737H158.434V52.1461H157.481V46.5247L152.775 52.1461H151.914V45.0737H151.911Z" fill="white"/>
<path d="M163.181 45.0737H164.137V48.2076H168.587V45.0737H169.543V52.1461H168.587V49.0265H164.137V52.1461H163.181V45.0737Z" fill="white"/>
<path d="M179.275 45.9211H175.228V52.1461H174.271V45.0737H179.273V45.9211H179.275Z" fill="white"/>
<path d="M45.3656 27.3289C45.226 20.1832 40.6554 13.8256 33.9972 11.5083C27.5875 9.2763 20.4536 11.1201 15.8215 16.2043L8.00586 9.08221C15.4949 0.866567 27.0621 -2.09921 37.4719 1.52221C48.2888 5.28801 55.7091 15.5747 55.934 27.1207L45.3656 27.3289Z" fill="#DCDD28"/>
<path d="M28.5458 54.8563C21.1254 54.8563 13.7879 51.8669 8.44336 46.2762L16.0838 38.9694C21.0213 44.1317 28.6878 45.7223 35.1614 42.9222C41.3888 40.2286 45.3936 34.0415 45.3652 27.1631L55.936 27.1182C55.9833 38.2357 49.4766 48.2478 39.3603 52.6243C35.888 54.1297 32.2051 54.8563 28.5458 54.8563Z" fill="#A0C528"/>
<path d="M54.8668 33.2179H29.5098V22.8696H54.8668V28.0438V33.2179Z" fill="#0DB144"/>
<path d="M55.9362 27.1182C55.9078 25.6791 55.7682 24.2589 55.522 22.8672H44.6743C45.0838 24.2755 45.3253 25.7454 45.3631 27.2555C45.3608 29.3337 44.9915 31.3456 44.3027 33.2154H55.2948C55.7256 31.2438 55.9457 29.2011 55.9362 27.1182Z" fill="#0C7C35"/>
<path d="M4.68505 39.1115C6.06497 38.063 7.55141 37.1683 8.95264 36.1481C9.96805 35.4073 10.9077 34.6664 11.9823 34.0865C11.1184 32.3823 10.342 29.8734 10.6379 26.6046C10.8273 24.517 11.2675 23.0826 11.7717 22.0388C11.722 21.9985 11.6722 21.963 11.6225 21.9228C11.5231 21.8423 11.4261 21.7595 11.3314 21.6719C11.2864 21.6293 11.2557 21.6033 11.2296 21.5796C11.2178 21.5701 11.206 21.563 11.1823 21.5441C10.6545 21.1488 10.0911 20.7914 9.53017 20.4458C8.42718 19.7689 7.28631 19.1582 6.17859 18.4907C5.01878 17.7925 3.96786 16.9783 2.95718 16.1167C1.73584 18.2114 0.505032 21.2672 0.107386 25.646C-0.479615 32.1338 1.44707 37.0594 3.28145 40.1672C3.75484 39.8121 4.22349 39.4618 4.68505 39.1115Z" fill="#FAC000"/>
</svg>
