<svg width="28" height="28" viewBox="0 0 28 28" fill="none" xmlns="http://www.w3.org/2000/svg">
<path fill-rule="evenodd" clip-rule="evenodd" d="M2.90505 1.21094H15.3491C15.8416 1.22719 16.3188 1.38593 16.7226 1.66781C16.8923 1.80807 17.0309 1.98206 17.1294 2.1787C17.2279 2.37534 17.2843 2.59032 17.295 2.80992V26.4109H17.9736V18.3835C17.9675 18.2307 17.9951 18.0785 18.0544 17.9375C18.1137 17.7966 18.2034 17.6703 18.317 17.5677C18.4393 17.4529 18.5832 17.3635 18.7404 17.3047C18.8976 17.2458 19.0649 17.2188 19.2327 17.225H24.7107C24.8797 17.2186 25.0484 17.2456 25.2069 17.3044C25.3655 17.3632 25.5108 17.4526 25.6346 17.5677C25.7472 17.6707 25.8356 17.7972 25.8936 17.9382C25.9515 18.0792 25.9775 18.2313 25.9698 18.3835V25.897H26.6484C26.8855 25.897 27 26.003 27 26.2396V26.8188C27 26.9412 26.8855 27.0554 26.6484 27.0554H2.93774C2.69095 27.0762 2.44253 27.0465 2.20771 26.9679C1.97289 26.8893 1.75666 26.7636 1.57234 26.5985C1.39417 26.466 1.2496 26.2937 1.15021 26.0953C1.05082 25.897 0.999367 25.6782 1.00001 25.4565V2.80992C1.01067 2.59032 1.06704 2.37534 1.16558 2.1787C1.26412 1.98206 1.40267 1.80807 1.57234 1.66781C1.97299 1.38572 2.44765 1.22688 2.93774 1.21094H2.90505ZM7.36104 8.3818H4.95726C4.73651 8.3818 4.622 8.38181 4.50754 8.48786C4.38999 8.61584 4.31071 8.77409 4.27863 8.94471V10.6497C4.27862 10.7372 4.29933 10.8235 4.33911 10.9015C4.3789 10.9794 4.43661 11.0469 4.50754 11.0984C4.622 11.229 4.73651 11.229 4.95726 11.229H7.36104C7.5249 11.2469 7.68929 11.2001 7.8189 11.0984C7.8888 11.0465 7.94528 10.9788 7.98368 10.9007C8.02207 10.8227 8.04123 10.7366 8.03962 10.6497V8.94471C8.01115 8.77455 7.93459 8.61605 7.8189 8.48786C7.68177 8.40407 7.52113 8.36686 7.36104 8.3818ZM7.36104 4.05809H4.95726C4.73651 4.05809 4.622 4.05807 4.50754 4.17229C4.38572 4.29402 4.30562 4.45108 4.27863 4.62099V6.326C4.27863 6.41466 4.29933 6.50209 4.33906 6.58139C4.3788 6.66068 4.43645 6.72966 4.50754 6.78285C4.622 6.8889 4.73651 6.88891 4.95726 6.88891H7.36104C7.52113 6.90385 7.68177 6.86664 7.8189 6.78285C7.88895 6.72924 7.94539 6.65999 7.98373 6.58064C8.02207 6.50129 8.04121 6.41408 8.03962 6.326V4.62099C8.0149 4.45206 7.93772 4.29512 7.8189 4.17229C7.68402 4.08272 7.52229 4.04239 7.36104 4.05809ZM13.2968 4.05809H10.9176C10.7562 4.04027 10.5938 4.08078 10.4598 4.17229C10.3379 4.29402 10.2578 4.45108 10.2308 4.62099V6.326C10.2308 6.41466 10.2515 6.50209 10.2912 6.58139C10.331 6.66068 10.3887 6.72966 10.4598 6.78285C10.5962 6.86835 10.7574 6.9057 10.9176 6.88891H13.3132C13.5421 6.88891 13.6566 6.8889 13.7711 6.78285C13.8412 6.72881 13.8983 6.65965 13.9379 6.58054C13.9775 6.50144 13.9988 6.41444 14 6.326V4.62099C13.9678 4.45284 13.8884 4.29725 13.7711 4.17229C13.6566 4.05807 13.5421 4.05809 13.3132 4.05809H13.2968ZM7.36104 21.353H4.95726C4.87099 21.356 4.78634 21.3773 4.70884 21.4152C4.63135 21.4532 4.56273 21.507 4.50754 21.5733C4.39307 21.6875 4.27863 21.8098 4.27863 21.9159V23.6209C4.27863 23.7096 4.29933 23.797 4.33906 23.8763C4.3788 23.9556 4.43645 24.0246 4.50754 24.0778C4.56273 24.144 4.63135 24.1978 4.70884 24.2358C4.78634 24.2738 4.87099 24.2949 4.95726 24.298H7.36104C7.5309 24.2675 7.68921 24.1914 7.8189 24.0778C7.88895 24.0242 7.94539 23.9549 7.98373 23.8756C8.02207 23.7962 8.04121 23.709 8.03962 23.6209V21.924C8.03962 21.818 7.93336 21.6956 7.8189 21.5814C7.68921 21.4678 7.5309 21.3916 7.36104 21.3611V21.353ZM13.2968 21.353H10.9176C10.7467 21.38 10.5874 21.4566 10.4598 21.5733C10.3453 21.6875 10.2308 21.8098 10.2308 21.9159V23.6209C10.2308 23.7096 10.2515 23.797 10.2912 23.8763C10.331 23.9556 10.3887 24.0246 10.4598 24.0778C10.5874 24.1944 10.7467 24.2709 10.9176 24.298H13.3132C13.4009 24.2961 13.4871 24.2754 13.5661 24.2374C13.6451 24.1994 13.715 24.145 13.7711 24.0778C13.8412 24.0237 13.8983 23.9546 13.9379 23.8755C13.9775 23.7964 13.9988 23.7094 14 23.6209V21.924C14 21.818 13.8774 21.6956 13.7711 21.5814C13.715 21.5142 13.6451 21.4597 13.5661 21.4217C13.4871 21.3837 13.4009 21.3631 13.3132 21.3611L13.2968 21.353ZM7.36104 17.0293H4.95726C4.86947 17.0332 4.78363 17.0565 4.7059 17.0974C4.62817 17.1383 4.56041 17.1958 4.50754 17.2658C4.39307 17.2658 4.27863 17.5024 4.27863 17.6085V19.3135C4.28309 19.4013 4.30575 19.4872 4.34515 19.5658C4.38455 19.6445 4.43982 19.7141 4.50754 19.7703C4.622 19.8764 4.73651 19.8764 4.95726 19.8764H7.36104C7.52113 19.8913 7.68177 19.8541 7.8189 19.7703C7.8855 19.7137 7.93953 19.6438 7.97754 19.5651C8.01555 19.4865 8.03667 19.4008 8.03962 19.3135V17.6003C8.03962 17.4943 7.93336 17.2577 7.8189 17.2577C7.69214 17.1367 7.53322 17.0546 7.36104 17.0211V17.0293ZM13.2968 17.0293H10.9176C10.7434 17.0568 10.5828 17.1398 10.4598 17.2658C10.3453 17.2658 10.2308 17.5024 10.2308 17.6085V19.3135C10.2353 19.4013 10.2579 19.4872 10.2973 19.5658C10.3367 19.6445 10.392 19.7141 10.4598 19.7703C10.5962 19.8558 10.7574 19.8932 10.9176 19.8764H13.3132C13.5421 19.8764 13.6566 19.8764 13.7711 19.7703C13.9049 19.6543 13.9873 19.49 14 19.3135V17.6003C14 17.4943 13.8774 17.2577 13.7711 17.2577C13.7173 17.1866 13.6483 17.1285 13.5691 17.0875C13.4898 17.0466 13.4024 17.0239 13.3132 17.0211L13.2968 17.0293ZM7.36104 12.7055H4.95726C4.73651 12.7055 4.622 12.8197 4.50754 12.8197C4.39025 12.9447 4.3109 13.1003 4.27863 13.2684V14.9979C4.28322 15.0845 4.30597 15.1692 4.3454 15.2465C4.38483 15.3238 4.44005 15.392 4.50754 15.4466C4.622 15.5608 4.73651 15.5608 4.95726 15.5608H7.36104C7.52229 15.5765 7.68402 15.5362 7.8189 15.4466C7.88527 15.3915 7.93925 15.3231 7.97729 15.2458C8.01533 15.1685 8.03655 15.084 8.03962 14.9979V13.2684C8.01099 13.1008 7.93435 12.9449 7.8189 12.8197C7.70443 12.8197 7.46733 12.7055 7.36104 12.7055ZM13.2968 12.7055H10.9176C10.8032 12.7055 10.5661 12.8197 10.4598 12.8197C10.3425 12.9447 10.2631 13.1003 10.2308 13.2684V14.9979C10.2354 15.0845 10.2581 15.1692 10.2976 15.2465C10.337 15.3238 10.3923 15.392 10.4598 15.4466C10.5938 15.5381 10.7562 15.5786 10.9176 15.5608H13.3132C13.5421 15.5608 13.6566 15.5608 13.7711 15.4466C13.8371 15.3907 13.8914 15.3222 13.9307 15.2452C13.97 15.1682 13.9935 15.0841 14 14.9979V13.2684C13.9642 13.1015 13.8853 12.9468 13.7711 12.8197C13.6566 12.8197 13.5421 12.7055 13.3132 12.7055H13.2968ZM13.2968 8.38997H10.9176C10.7574 8.37318 10.5962 8.41053 10.4598 8.49603C10.3422 8.62401 10.2629 8.78226 10.2308 8.95287V10.6579C10.2308 10.7454 10.2516 10.8317 10.2913 10.9096C10.3311 10.9876 10.3888 11.0551 10.4598 11.1066C10.5661 11.2371 10.8032 11.2371 10.9176 11.2371H13.3132C13.5421 11.2371 13.6566 11.2371 13.7711 11.1066C13.8411 11.0542 13.8981 10.9865 13.9378 10.9088C13.9775 10.831 13.9988 10.7452 14 10.6579V8.95287C13.9645 8.78344 13.8856 8.62606 13.7711 8.49603C13.6566 8.38997 13.5421 8.38997 13.3132 8.38997H13.2968Z" stroke="white" stroke-miterlimit="10"/>
</svg>
