<svg width="69" height="55" viewBox="0 0 69 55" fill="none" xmlns="http://www.w3.org/2000/svg">
<path d="M68.1582 52.4874C67.5463 53.7619 66.5237 54.1165 65.1399 54.1138C44.7624 54.0805 24.3862 54.0738 4.00876 54.1165C1.86502 54.1205 1.01179 52.8286 1.12378 51.1928C1.1811 50.3543 1.12644 49.5077 1.13578 48.6665C1.15311 47.1973 1.86369 46.3881 3.31417 46.1055C3.48749 46.0721 3.70746 45.8642 3.76212 45.6922C4.36871 43.7831 4.73 41.834 4.55802 39.8182C4.49536 39.089 4.67534 38.4997 5.43391 38.1971C5.16861 36.8426 4.90464 35.5228 4.65668 34.2003C4.59668 33.8763 4.56469 33.543 4.56469 33.2137C4.55802 29.4662 4.56069 25.7187 4.56069 21.9724C4.56069 21.7338 4.56069 21.4952 4.56069 21.2165C2.39695 21.3645 1.51706 19.6621 0.349206 18.4235C0.113235 18.1729 0.0505758 17.6823 0.0465763 17.301C0.0225792 14.5734 0.0345777 11.8457 0.0359109 9.11803C0.0359109 8.96338 0.0345777 8.80473 0.0665738 8.65409C0.343873 7.32092 2.82357 5.28117 4.19407 5.25317C4.28206 5.25184 4.37004 5.24251 4.56202 5.23051C4.56202 4.55859 4.55935 3.88134 4.56202 3.20409C4.56869 1.64295 5.47791 0.729728 7.03638 0.729728C10.54 0.728395 14.0435 0.773722 17.5458 0.70973C19.2109 0.679067 20.1708 1.21367 20.5614 2.99212C20.808 2.99212 21.0693 2.99212 21.3306 2.99212C33.0159 2.99212 44.7011 3.01478 56.3863 2.96812C58.1554 2.96145 59.2246 4.16531 59.1126 5.71711C59.0447 6.66366 59.1006 7.61821 59.1006 8.55276C59.5513 8.71808 59.9925 8.81273 60.3605 9.03004C61.1591 9.50065 61.4217 10.2886 61.4777 11.1724C61.5643 12.5429 61.6857 13.9121 61.7403 15.2853C61.7577 15.7225 61.923 15.9212 62.3096 16.0265C62.5216 16.0838 62.7215 16.1838 62.9282 16.2651C64.3173 16.8077 64.7799 17.4757 64.7813 18.9835C64.784 26.5439 64.7426 34.1056 64.8159 41.666C64.8306 43.1405 65.2826 44.611 65.5359 46.0961C66.8984 46.0975 67.6943 46.7321 68.1582 47.8306C68.1582 49.3824 68.1582 50.9342 68.1582 52.4874ZM3.49815 51.7701C24.3343 51.7701 45.0957 51.7701 65.8438 51.7701C65.8438 50.6423 65.8438 49.569 65.8438 48.4692C64.6706 48.3865 63.7561 47.9306 63.4561 46.7641C62.9642 44.8443 62.2603 42.9539 62.4482 40.9141C62.4589 40.7915 62.4189 40.6635 62.3976 40.4982C59.306 40.4982 56.249 40.4915 53.1934 40.5155C53.0161 40.5168 52.7828 40.7355 52.6734 40.9128C51.8469 42.25 50.9923 43.5738 50.2524 44.959C49.7538 45.8908 49.0819 46.1868 48.0567 46.1828C41.2722 46.1495 34.4863 46.1655 27.7018 46.1655C25.4408 46.1655 23.1784 46.1695 20.9173 46.1641C19.8788 46.1615 19.6108 45.9708 19.2255 45.0083C18.6909 43.6751 18.139 42.3486 17.6377 41.0021C17.4858 40.5942 17.2818 40.4862 16.8685 40.4888C13.7422 40.5062 10.6159 40.4968 7.48966 40.4995C7.29768 40.4995 7.10571 40.5248 6.8844 40.5408C6.87107 40.6875 6.84441 40.7955 6.85374 40.9008C7.03905 42.9152 6.3858 44.7923 5.89252 46.6921C5.63922 47.664 4.9953 48.2412 3.98876 48.3959C3.82211 48.4212 3.6608 48.4785 3.49815 48.5198C3.49815 49.6224 3.49815 50.6809 3.49815 51.7701ZM36.3608 18.8608C36.3608 17.8889 36.3701 17.0264 36.3581 16.1638C36.3474 15.3733 36.6607 14.7467 37.2753 14.2667C37.9912 13.7081 38.7112 13.1535 39.4377 12.6083C40.4149 11.8764 41.3855 11.8697 42.3747 12.5976C43.0173 13.0695 43.6252 13.5908 44.2798 14.0454C45.1424 14.6453 45.5183 15.4452 45.477 16.4851C45.4463 17.2544 45.4717 18.0263 45.4717 18.8648C46.6355 18.8648 47.7194 18.8395 48.8006 18.8742C49.5272 18.8968 50.0151 19.4074 50.0098 20.0367C50.0044 20.6699 49.5085 21.1485 48.7899 21.1939C48.466 21.2139 48.1407 21.1979 47.8074 21.1979C47.8074 21.9764 47.8074 22.6684 47.8074 23.3816C50.0498 23.3816 52.2362 23.3816 54.5052 23.3816C54.5052 23.087 54.5052 22.827 54.5052 22.5657C54.5052 18.7968 54.5012 15.028 54.5079 11.2591C54.5105 9.82194 55.0825 9.08737 56.429 8.69808C56.5636 8.65942 56.7623 8.50077 56.7649 8.39278C56.7903 7.36358 56.7796 6.33304 56.7796 5.30916C44.6344 5.30916 32.6052 5.30916 20.5587 5.30916C20.5587 6.0624 20.5587 6.77565 20.5587 7.52089C21.8292 7.52089 23.0477 7.54089 24.2636 7.51423C25.0955 7.49556 25.8114 7.7422 26.334 8.37412C27.1632 9.37933 28.0898 10.0979 29.4936 9.78861C29.515 9.78461 29.5376 9.78728 29.5603 9.78995C30.2309 9.84994 30.7001 10.3272 30.6988 10.9485C30.6975 11.5471 30.2695 12.007 29.6163 12.079C29.2497 12.119 28.8777 12.119 28.4897 12.1377C28.4897 12.8856 28.4897 13.5788 28.4897 14.2907C28.6911 14.3027 28.8457 14.3321 28.9963 14.3161C30.1762 14.1947 30.7015 14.8173 30.6935 15.5252C30.6855 16.2838 30.1042 16.7144 28.987 16.6398C28.0911 16.5798 27.3872 16.7891 26.8633 17.5317C26.7753 17.657 26.638 17.7463 26.5393 17.865C25.8621 18.6755 24.9942 18.9808 23.9463 18.9408C22.8238 18.8968 21.6986 18.9315 20.5454 18.9315C20.5454 20.454 20.5454 21.9031 20.5454 23.3763C25.0755 23.3763 29.5656 23.3763 34.0531 23.3763C34.0531 22.6337 34.0531 21.9351 34.0531 21.1952C33.6558 21.1952 33.2998 21.2219 32.9492 21.1899C32.1653 21.1166 31.668 20.4753 31.8547 19.7581C32.0266 19.1008 32.5346 18.8675 33.1692 18.8648C34.2064 18.8582 35.2436 18.8608 36.3608 18.8608ZM62.4296 34.8162C43.9638 34.8162 25.5701 34.8162 7.12171 34.8162C7.34834 35.9467 7.56832 37.0413 7.78296 38.1105C26.0407 38.1105 44.2265 38.1105 62.4296 38.1105C62.4296 36.9946 62.4296 35.9361 62.4296 34.8162ZM6.88307 3.01745C6.88307 9.82861 6.88307 16.5758 6.88307 23.3696C10.6439 23.3696 14.3741 23.3696 18.1084 23.3696C18.1084 16.5638 18.1084 9.80061 18.1084 3.01745C14.3541 3.01745 10.6586 3.01745 6.88307 3.01745ZM34.0477 32.4911C34.0477 31.7246 34.0477 31.0087 34.0477 30.2634C33.7558 30.2634 33.5145 30.2634 33.2718 30.2634C30.7001 30.2634 28.1271 30.2634 25.5554 30.2634C25.4008 30.2634 25.2448 30.2674 25.0902 30.2621C24.3783 30.2341 23.8716 29.7662 23.8623 29.1289C23.853 28.481 24.3316 27.9904 25.0622 27.985C27.7898 27.969 30.5175 27.9757 33.2452 27.9744C33.5051 27.9744 33.7664 27.9744 34.0477 27.9744C34.0477 27.1891 34.0477 26.4746 34.0477 25.7866C24.9635 25.7866 15.93 25.7866 6.89507 25.7866C6.89507 28.0477 6.89507 30.2541 6.89507 32.4898C15.9566 32.4911 24.9742 32.4911 34.0477 32.4911ZM50.1924 40.5342C40.0683 40.5342 30.0442 40.5342 19.9268 40.5342C20.3107 41.4927 20.7 42.3779 21.0147 43.2898C21.1733 43.7511 21.4186 43.8604 21.8772 43.8591C26.9526 43.8431 32.028 43.8498 37.1034 43.8498C40.6056 43.8498 44.1065 43.8538 47.6087 43.8418C47.8487 43.8404 48.2087 43.7938 48.31 43.6378C48.9579 42.6419 49.5472 41.6127 50.1924 40.5342ZM47.7834 27.9744C48.11 27.9744 48.35 27.9744 48.5913 27.9744C50.851 27.9744 53.1107 27.9704 55.3704 27.9757C56.2957 27.9784 56.8516 28.433 56.8276 29.1422C56.8049 29.8315 56.257 30.2594 55.3798 30.2608C53.0974 30.2634 50.8163 30.2621 48.5339 30.2621C48.2966 30.2621 48.058 30.2621 47.8047 30.2621C47.8047 31.046 47.8047 31.7592 47.8047 32.4845C52.7001 32.4845 57.5422 32.4845 62.4069 32.4845C62.4069 30.2261 62.4069 28.0037 62.4069 25.7853C57.5048 25.7853 52.6454 25.7853 47.782 25.7853C47.7834 26.5199 47.7834 27.2025 47.7834 27.9744ZM45.393 21.2552C42.3507 21.2552 39.3764 21.2552 36.4021 21.2552C36.4021 25.0241 36.4021 28.7383 36.4021 32.4792C39.4151 32.4792 42.3907 32.4792 45.393 32.4792C45.393 28.7209 45.393 25.0067 45.393 21.2552ZM56.8636 23.3683C58.7514 23.3683 60.5778 23.3683 62.4509 23.3683C62.4509 22.2377 62.4509 21.1539 62.4509 20.0713C62.4509 18.5742 62.4496 18.5782 61.0404 18.0009C60.1259 17.6263 59.5633 16.9757 59.4913 15.9572C59.4539 15.4279 59.4166 14.8973 59.3766 14.368C59.2913 13.2495 59.206 12.131 59.1193 11.0045C58.3327 11.0045 57.6128 11.0045 56.8636 11.0045C56.8636 15.1333 56.8636 19.2248 56.8636 23.3683ZM20.5267 16.5891C21.6706 16.5891 22.7518 16.5598 23.829 16.6011C24.3649 16.6224 24.7022 16.3985 25.1022 16.0758C25.9367 15.4013 26.2847 14.6107 26.134 13.5495C26.066 13.0722 26.1234 12.5776 26.122 12.091C26.122 11.4937 25.0102 9.8886 24.4302 9.8566C23.1397 9.78328 21.8426 9.83394 20.5267 9.83394C20.5267 12.115 20.5267 14.3001 20.5267 16.5891ZM4.53536 7.37158C4.12874 7.59022 3.84478 7.71287 3.59681 7.88618C3.3995 8.0235 3.26618 8.25147 3.07154 8.39145C2.41029 8.86606 2.25964 9.49532 2.2863 10.2872C2.34496 12.0363 2.38762 13.7948 2.27697 15.5399C2.19698 16.8024 2.50361 17.785 3.54348 18.5009C3.81545 18.6875 4.14207 18.7928 4.53669 18.9795C4.53536 15.06 4.53536 11.3418 4.53536 7.37158ZM43.1546 18.8262C43.1546 18.1023 43.1239 17.4197 43.1653 16.7424C43.1946 16.2718 43.06 15.9585 42.6533 15.7052C42.0281 15.3159 41.4188 14.528 40.8296 14.552C40.2136 14.5774 39.6244 15.3573 39.0364 15.8225C38.9085 15.9239 38.7538 16.0892 38.7498 16.2292C38.7232 17.0824 38.7365 17.9369 38.7365 18.8262C40.187 18.8262 41.6161 18.8262 43.1546 18.8262Z" fill="white"/>
<path d="M12.5005 13.2232C14.395 13.2139 15.9348 14.7217 15.9548 16.6041C15.9748 18.4679 14.4256 20.0224 12.5419 20.0263C10.6434 20.0303 9.10361 18.5225 9.09161 16.6454C9.08094 14.763 10.6074 13.2312 12.5005 13.2232ZM13.6191 16.6134C13.6137 16.0042 13.1418 15.5149 12.5459 15.5002C11.9313 15.4842 11.418 16.0028 11.4233 16.6348C11.4287 17.24 11.9073 17.7373 12.4992 17.752C13.1098 17.7666 13.6244 17.244 13.6191 16.6134Z" fill="white"/>
<path d="M12.5448 5.25973C12.9421 5.25973 13.3421 5.23574 13.7367 5.26507C14.3553 5.31173 14.8006 5.80767 14.7979 6.40626C14.7966 7.02352 14.3793 7.49546 13.7287 7.52212C12.9128 7.55545 12.0942 7.55545 11.2783 7.51679C10.6571 7.48746 10.2718 7.03418 10.2598 6.43026C10.2478 5.80767 10.6597 5.33706 11.2837 5.26107C11.3276 5.25573 11.3716 5.25573 11.4156 5.25573C11.7916 5.25573 12.1662 5.25573 12.5422 5.25573C12.5448 5.2584 12.5448 5.25973 12.5448 5.25973Z" fill="white"/>
<path d="M12.5315 10.9647C12.1555 10.9647 11.7796 10.9807 11.405 10.9607C10.7211 10.9247 10.2704 10.4714 10.2598 9.83683C10.2478 9.18491 10.6624 8.71697 11.3596 8.68631C12.1315 8.65165 12.9061 8.65298 13.678 8.68497C14.3739 8.7143 14.8059 9.18491 14.7992 9.8235C14.7925 10.4434 14.3246 10.922 13.658 10.9607C13.2834 10.982 12.9061 10.9647 12.5315 10.9647Z" fill="white"/>
<path d="M40.9002 30.2611C39.0218 30.2584 37.474 28.7066 37.482 26.8349C37.49 24.9551 39.0391 23.418 40.9189 23.4273C42.8093 23.4366 44.3385 24.9698 44.3318 26.8522C44.3265 28.7293 42.7813 30.2638 40.9002 30.2611ZM40.9362 27.9601C41.5361 27.9441 42.0201 27.4348 42.0134 26.8309C42.0054 26.1936 41.4828 25.7043 40.8442 25.7377C40.2296 25.7697 39.787 26.2603 39.807 26.8869C39.8283 27.4868 40.3416 27.9761 40.9362 27.9601Z" fill="white"/>
</svg>
