<svg width="260" height="62" viewBox="0 0 260 62" fill="none" xmlns="http://www.w3.org/2000/svg">
<g clip-path="url(#clip0_219_1540)">
<path d="M114.598 21.8829C114.598 30.703 107.537 37.8538 98.7845 37.8538C91.4709 37.8538 85.2983 32.8004 83.5234 25.9492H88.1746C88.7663 27.4473 89.6115 28.817 90.7974 30.0182C92.9104 32.1583 95.7867 33.3568 98.7871 33.3568C101.832 33.3568 104.664 32.1583 106.819 30.0182C108.425 28.3917 109.484 26.3344 109.904 24.1515H98.7845V19.6144H109.904C109.481 17.4314 108.425 15.3742 106.819 13.7477C104.664 11.6076 101.832 10.4091 98.7871 10.4091C95.7867 10.4091 92.9104 11.6076 90.7974 13.7477C89.6141 14.9462 88.7689 16.3159 88.1746 17.8167H83.5234C85.2983 10.9655 91.4709 5.91211 98.7845 5.91211C107.537 5.91211 114.598 13.0629 114.598 21.8829Z" fill="black"/>
<path d="M121.747 36.9122H117.392V6.93945H121.747V18.7156H139.124V6.93945H143.479V36.9122H139.124V23.1243H121.747V36.9122Z" fill="black"/>
<path d="M174.17 11.5646L151.849 21.8827L174.17 32.1608V37.2142L151.004 26.5937V36.9146H146.648V6.93917H151.004V17.2145L174.17 6.55127V11.5646Z" fill="black"/>
<path d="M190.451 37.8964C181.7 37.8964 174.638 30.7028 174.638 21.8828C174.638 13.0199 181.698 5.86914 190.451 5.86914C199.159 5.86914 206.261 13.0199 206.261 21.8828C206.261 30.7028 199.159 37.8964 190.451 37.8964ZM182.419 29.9752C184.574 32.1581 187.405 33.3566 190.451 33.3566C193.493 33.3566 196.327 32.1581 198.483 29.9752C200.638 27.8351 201.782 24.9218 201.782 21.8828C201.782 18.801 200.641 15.8877 198.483 13.7475C196.327 11.5646 193.493 10.3661 190.451 10.3661C187.405 10.3661 184.574 11.5646 182.419 13.7475C180.264 15.8877 179.078 18.801 179.078 21.8828C179.078 24.9218 180.261 27.8351 182.419 29.9752Z" fill="black"/>
<path d="M224.655 37.8538C215.947 37.8538 208.887 30.703 208.887 21.8829C208.887 13.0629 215.947 5.91211 224.655 5.91211C232.053 5.91211 238.268 11.0511 240 17.9879H235.349C234.758 16.4042 233.87 14.9917 232.687 13.7477C230.532 11.6076 227.698 10.4091 224.655 10.4091C221.654 10.4091 218.778 11.6076 216.665 13.7477C214.51 15.9307 213.327 18.8011 213.327 21.8829C213.327 24.9674 214.51 27.8352 216.665 30.0182C218.778 32.1583 221.654 33.3568 224.655 33.3568C227.7 33.3568 230.532 32.1583 232.687 30.0182C233.828 28.8625 234.673 27.5356 235.222 26.0776H239.916C238.099 32.8458 231.971 37.8538 224.655 37.8538Z" fill="black"/>
<path d="M252.306 11.3482V36.9122H247.993V11.3482H240.299V6.93945H260V11.3508H252.306V11.3482Z" fill="black"/>
<path d="M94.1625 50.9429V58.9363H93.1879V52.6149L89.992 57.9652H89.5113L86.3154 52.6015V58.939H85.3408V50.9455H86.4211L89.7675 56.7052L93.1747 50.9455H94.1625V50.9429Z" fill="black"/>
<path d="M100.644 58.4871C100.034 58.1367 99.553 57.6525 99.2043 57.0345C98.853 56.4165 98.6787 55.7183 98.6787 54.9372C98.6787 54.156 98.853 53.4578 99.2043 52.8398C99.5556 52.2218 100.034 51.7403 100.644 51.3952C101.254 51.0501 101.938 50.8789 102.699 50.8789C103.459 50.8789 104.143 51.0501 104.754 51.3952C105.364 51.7403 105.842 52.2218 106.188 52.8398C106.534 53.4578 106.705 54.156 106.705 54.9372C106.705 55.7183 106.534 56.4165 106.188 57.0345C105.842 57.6525 105.364 58.1367 104.754 58.4871C104.143 58.8376 103.459 59.0115 102.699 59.0115C101.938 59.0115 101.254 58.8376 100.644 58.4871ZM104.207 57.6685C104.651 57.409 104.999 57.0425 105.25 56.5663C105.501 56.0902 105.625 55.5471 105.625 54.9398C105.625 54.3326 105.501 53.7895 105.25 53.3133C104.999 52.8371 104.653 52.4706 104.207 52.2111C103.76 51.9517 103.259 51.8232 102.699 51.8232C102.139 51.8232 101.637 51.9517 101.191 52.2111C100.747 52.4706 100.396 52.8371 100.142 53.3133C99.8858 53.7895 99.759 54.3326 99.759 54.9398C99.759 55.5471 99.8858 56.0902 100.142 56.5663C100.398 57.0425 100.747 57.409 101.191 57.6685C101.637 57.928 102.139 58.0564 102.699 58.0564C103.259 58.0537 103.76 57.9253 104.207 57.6685Z" fill="black"/>
<path d="M111.235 50.9429H112.302V54.4848H117.268V50.9429H118.335V58.9363H117.268V55.4104H112.302V58.9363H111.235V50.9429Z" fill="black"/>
<path d="M123.615 50.9429H124.682V57.2964L129.949 50.9429H130.894V58.9363H129.83V52.5828L124.579 58.9363H123.618V50.9429H123.615Z" fill="black"/>
<path d="M141.742 51.9006H138.757V58.9363H137.69V51.9006H134.703V50.9429H141.739V51.9006H141.742Z" fill="black"/>
<path d="M146.377 58.4871C145.767 58.1367 145.286 57.6525 144.938 57.0345C144.586 56.4165 144.412 55.7183 144.412 54.9372C144.412 54.156 144.586 53.4578 144.938 52.8398C145.289 52.2218 145.767 51.7403 146.377 51.3952C146.987 51.0501 147.671 50.8789 148.432 50.8789C149.193 50.8789 149.877 51.0501 150.487 51.3952C151.097 51.7403 151.575 52.2218 151.921 52.8398C152.267 53.4578 152.439 54.156 152.439 54.9372C152.439 55.7183 152.267 56.4165 151.921 57.0345C151.575 57.6525 151.097 58.1367 150.487 58.4871C149.877 58.8376 149.193 59.0115 148.432 59.0115C147.674 59.0115 146.987 58.8376 146.377 58.4871ZM149.943 57.6685C150.387 57.409 150.735 57.0425 150.986 56.5663C151.237 56.0902 151.361 55.5471 151.361 54.9398C151.361 54.3326 151.237 53.7895 150.986 53.3133C150.735 52.8371 150.389 52.4706 149.943 52.2111C149.496 51.9517 148.995 51.8232 148.435 51.8232C147.875 51.8232 147.373 51.9517 146.927 52.2111C146.483 52.4706 146.132 52.8371 145.878 53.3133C145.622 53.7895 145.495 54.3326 145.495 54.9398C145.495 55.5471 145.622 56.0902 145.878 56.5663C146.134 57.0425 146.483 57.409 146.927 57.6685C147.373 57.928 147.875 58.0564 148.435 58.0564C148.995 58.0537 149.496 57.9253 149.943 57.6685Z" fill="black"/>
<path d="M163.048 51.3899C163.648 51.7296 164.118 52.2085 164.459 52.8264C164.799 53.4444 164.968 54.148 164.968 54.9398C164.968 55.7397 164.799 56.4486 164.459 57.0666C164.118 57.6846 163.65 58.1634 163.056 58.5032C162.462 58.8429 161.788 59.0115 161.038 59.0115C160.399 59.0115 159.821 58.8777 159.306 58.6075C158.791 58.34 158.368 57.9467 158.038 57.4304V61.8819H156.971V50.9404H157.99V52.5215C158.31 51.9945 158.732 51.5905 159.258 51.3043C159.784 51.0207 160.375 50.8789 161.036 50.8789C161.778 50.8816 162.449 51.0501 163.048 51.3899ZM162.462 57.6685C162.913 57.409 163.265 57.0425 163.521 56.5663C163.777 56.0902 163.904 55.5471 163.904 54.9398C163.904 54.3326 163.777 53.7922 163.521 53.3213C163.265 52.8505 162.913 52.484 162.462 52.2192C162.013 51.957 161.511 51.8232 160.962 51.8232C160.402 51.8232 159.9 51.9543 159.453 52.2192C159.007 52.4813 158.658 52.8505 158.402 53.3213C158.146 53.7922 158.019 54.3326 158.019 54.9398C158.019 55.5471 158.146 56.0902 158.402 56.5663C158.658 57.0425 159.007 57.409 159.453 57.6685C159.897 57.928 160.402 58.0564 160.962 58.0564C161.511 58.0537 162.013 57.9253 162.462 57.6685Z" fill="black"/>
<path d="M169.515 50.9429H170.582V57.2964L175.848 50.9429H176.794V58.9363H175.729V52.5828L170.479 58.9363H169.517V50.9429H169.515Z" fill="black"/>
<path d="M182.089 50.9429H183.156V54.4848H188.121V50.9429H189.188V58.9363H188.121V55.4104H183.156V58.9363H182.089V50.9429Z" fill="black"/>
<path d="M200.049 51.9006H195.533V58.9363H194.466V50.9429H200.047V51.9006H200.049Z" fill="black"/>
<path d="M50.6218 30.8875C50.466 22.8111 45.3657 15.6255 37.936 13.0065C30.7835 10.4838 22.8228 12.5678 17.654 18.3141L8.93262 10.2645C17.2895 0.97893 30.1972 -2.37307 41.8133 1.71996C53.8837 5.97617 62.164 17.6025 62.4149 30.652L50.6218 30.8875Z" fill="#DCDD28"/>
<path d="M31.8529 61.9999C23.5726 61.9999 15.3848 58.6211 9.4209 52.3023L17.9468 44.044C23.4564 49.8786 32.0113 51.6763 39.2351 48.5116C46.1842 45.4672 50.6531 38.4743 50.6214 30.7002L62.4172 30.6494C62.47 43.2147 55.2093 54.5308 43.9206 59.4772C40.046 61.1786 35.9362 61.9999 31.8529 61.9999Z" fill="#A0C528"/>
<path d="M61.2242 37.5435H32.9287V25.8477H61.2242V31.6956V37.5435Z" fill="#0BA13D"/>
<path d="M62.4172 30.6494C62.3855 29.0228 62.2297 27.4177 61.955 25.8447H49.8502C50.3072 27.4365 50.5766 29.0977 50.6188 30.8045C50.6162 33.1533 50.2041 35.4272 49.4355 37.5406H61.7014C62.1821 35.3122 62.4278 33.0035 62.4172 30.6494Z" fill="#0C7C35"/>
<path d="M5.22699 44.2047C6.76683 43.0196 8.42552 42.0084 9.98913 40.8554C11.1222 40.0181 12.1708 39.1807 13.3699 38.5253C12.4059 36.5992 11.5395 33.7635 11.8697 30.0691C12.081 27.7096 12.5723 26.0884 13.1348 24.9086C13.0794 24.8632 13.0239 24.823 12.9684 24.7776C12.8575 24.6866 12.7492 24.593 12.6436 24.494C12.5934 24.4458 12.559 24.4164 12.53 24.3897C12.5168 24.379 12.5036 24.3709 12.4772 24.3495C11.8882 23.9028 11.2596 23.4988 10.6336 23.1082C9.40278 22.3431 8.1297 21.6529 6.89361 20.8985C5.59941 20.1094 4.4267 19.1891 3.29889 18.2153C1.93602 20.5829 0.562581 24.0365 0.118854 28.9856C-0.536171 36.3183 1.61379 41.8853 3.66074 45.3978C4.18899 44.9966 4.71195 44.6006 5.22699 44.2047Z" fill="#FAC000"/>
</g>
<defs>
<clipPath id="clip0_219_1540">
<rect width="260" height="62" fill="white"/>
</clipPath>
</defs>
</svg>
