<svg width="47" height="47" viewBox="0 0 47 47" fill="none" xmlns="http://www.w3.org/2000/svg">
<circle cx="23.5" cy="23.5" r="23.5" fill="#0BA13D"/>
<path d="M20.1954 19.4849C20.4142 20.316 20.6307 21.1476 20.8559 21.9769C20.8761 22.0506 20.9635 22.1719 20.9974 22.1645C21.3059 22.1009 21.6099 22.0135 21.9235 21.9311C21.4932 20.3064 21.0729 18.7206 20.6509 17.1279C20.7168 17.0977 20.7621 17.0684 20.812 17.0551C21.5701 16.8533 22.3295 16.6555 23.0866 16.4514C23.2514 16.407 23.2633 16.5228 23.2894 16.6226C23.5 17.4162 23.7087 18.2107 23.9175 19.0052C24.1139 19.754 24.3098 20.5032 24.513 21.2803C24.9365 21.1696 25.343 21.0634 25.7614 20.9545C25.7453 20.8899 25.7371 20.8542 25.7275 20.8185C25.4441 19.7531 25.1626 18.6867 24.8742 17.6226C24.8381 17.4899 24.8408 17.4029 24.9905 17.364C25.5581 17.2157 26.1253 17.0665 26.692 16.915C26.827 16.8789 26.8856 16.9292 26.9154 17.061C26.9639 17.2761 27.0294 17.4871 27.0852 17.7009C27.391 18.8629 27.695 20.0254 28.0067 21.1856C28.025 21.2542 28.1211 21.3636 28.1591 21.3554C28.4983 21.2803 28.833 21.1833 29.18 21.0899C29.1639 21.0162 29.1548 20.965 29.1415 20.9151C28.8513 19.8277 28.5666 18.7389 28.2653 17.6546C28.21 17.4546 28.264 17.3755 28.4489 17.3347C28.6197 17.2972 28.7909 17.2555 28.957 17.2025C29.1127 17.1526 29.1736 17.2061 29.2106 17.3581C29.304 17.7421 29.4166 18.1215 29.5132 18.505C29.5434 18.6244 29.5887 18.6743 29.7183 18.6386C30.1367 18.5238 30.5565 18.4112 30.9776 18.3073C31.1099 18.2748 31.1296 18.2029 31.0994 18.0913C31.0458 17.8931 30.9794 17.6967 30.9428 17.4954C30.9099 17.3137 30.8146 17.2981 30.6668 17.3416C30.4699 17.3997 30.2704 17.4491 30.0735 17.5068C29.9586 17.5407 29.8977 17.5265 29.8643 17.3887C29.7622 16.9677 29.6318 16.5535 29.5343 16.131C29.4903 15.9411 29.4299 15.883 29.2289 15.9397C28.475 16.1521 27.7156 16.3439 26.9598 16.5503C26.8037 16.5928 26.7323 16.5745 26.6975 16.3951C26.6421 16.1091 26.5501 15.8304 26.47 15.5347C25.3961 15.8162 24.3597 16.088 23.2876 16.3695C23.2121 16.0976 23.1342 15.845 23.0729 15.5882C23.0399 15.4505 22.996 15.3919 22.8408 15.4432C22.6174 15.5169 22.3863 15.5658 22.1583 15.6258C21.571 15.78 20.9841 15.9342 20.3707 16.0954C19.9436 14.4834 19.5202 12.8848 19.0894 11.2605C18.7447 11.3548 18.4275 11.4413 18.0942 11.5328C18.2645 12.1699 18.4275 12.7708 18.5863 13.3736C19.1242 15.4102 19.6593 17.4473 20.1954 19.4849Z" fill="white"/>
<path d="M32.7802 32.4545C32.8283 32.6298 32.8018 32.709 32.609 32.7575C31.731 32.9781 30.8576 33.2147 29.9824 33.4463C27.9819 33.9758 25.9815 34.5063 23.9811 35.0358C23.7417 35.0994 23.5009 35.1585 23.2555 35.2212C23.0188 34.3791 22.7835 33.5699 22.5679 32.7552C22.5171 32.5635 22.4471 32.5291 22.2676 32.585C21.9802 32.6742 21.6854 32.7397 21.3846 32.8179C21.3581 32.7319 21.3361 32.6683 21.3192 32.6033C21.1699 32.0371 21.0147 31.4724 20.8769 30.903C20.8367 30.7374 20.7762 30.6856 20.6124 30.7419C20.4398 30.801 20.2613 30.8417 20.0859 30.8925C19.9513 30.9314 19.8767 30.8975 19.841 30.7483C19.7495 30.3639 19.6433 29.9827 19.5421 29.601C19.4139 29.1177 19.2853 28.6348 19.1539 28.141C18.5625 28.2998 17.993 28.4531 17.3975 28.6133C17.2304 27.9735 17.0702 27.3584 16.9013 26.7117C16.5689 26.7995 16.2526 26.8833 15.9326 26.9684C16.1578 27.8311 16.373 28.6545 16.5868 29.4783C16.6238 29.6216 16.7021 29.6495 16.8413 29.6106C17.2588 29.4934 17.6808 29.3909 18.0988 29.2756C18.2366 29.2376 18.3052 29.2627 18.3405 29.4147C18.4265 29.7849 18.5277 30.152 18.6266 30.519C18.8381 31.303 18.6714 31.2129 19.4702 31.0074C19.7435 30.9374 19.7586 30.941 19.8296 31.212C19.9761 31.7712 20.1308 32.3282 20.2722 32.8884C20.3089 33.0335 20.3688 33.0719 20.5121 33.0335C20.7826 32.9612 21.0569 32.904 21.342 32.8376C21.3681 32.9104 21.3956 32.9717 21.4125 33.0358C21.6959 34.1095 21.9806 35.1832 22.2576 36.2587C22.3066 36.4496 22.3624 36.5306 22.5913 36.4683C24.3477 35.9928 26.1083 35.5319 27.868 35.0679C29.6349 34.6019 31.4024 34.1383 33.1693 33.6724C33.4619 33.5955 33.7521 33.5109 34.0579 33.4262C34.0409 33.3365 34.0309 33.2619 34.0121 33.19C33.7219 32.0875 33.4298 30.9854 33.141 29.882C33.1295 29.838 33.146 29.7868 33.1506 29.7387C32.8077 29.8156 32.4644 29.8925 32.116 29.9703C32.344 30.8257 32.5569 31.6417 32.7802 32.4545Z" fill="white"/>
<path d="M33.1509 29.7382C33.1525 29.7376 33.1547 29.7371 33.1563 29.7371L33.1509 29.7344C33.1509 29.7355 33.1509 29.7371 33.1509 29.7382Z" fill="white"/>
<path d="M16.2782 17.4286C16.6915 18.9943 17.1063 20.56 17.5178 22.1266C17.5984 22.4323 17.6684 22.7408 17.7471 23.0639C17.185 23.2168 16.6522 23.3614 16.0905 23.5143C16.1646 23.7921 16.2411 24.0447 16.2969 24.3015C16.3276 24.4429 16.3867 24.4722 16.519 24.4337C16.811 24.3486 17.1058 24.2708 17.4006 24.1957C17.602 24.1445 17.8062 24.1033 18.0154 24.0562C18.2868 25.0763 18.5487 26.0525 18.8037 27.0301C18.8421 27.1775 18.8948 27.2374 19.0564 27.183C19.2363 27.1226 19.4239 27.0846 19.6098 27.0448C19.7837 27.0077 19.841 26.9386 19.7856 26.745C19.5787 26.0214 19.3919 25.2923 19.1996 24.5646C18.8206 23.1312 18.4434 21.6973 18.0648 20.2643C17.5947 18.4849 17.1227 16.7059 16.6526 14.927C16.4233 14.0597 16.1935 13.1924 15.9696 12.3237C15.9284 12.164 15.8785 12.0807 15.6922 12.153C15.5233 12.2189 15.3439 12.2642 15.1653 12.2981C14.9745 12.3342 14.9493 12.4166 14.9983 12.5988C15.4308 14.2075 15.8529 15.8185 16.2782 17.4286Z" fill="white"/>
<path d="M34.3497 25.7347C33.9171 24.1269 33.4945 22.5169 33.0697 20.9072C32.8312 20.0033 32.5964 19.098 32.3524 18.1955C32.3341 18.1278 32.2407 18.0193 32.2036 18.0275C31.8713 18.0999 31.544 18.1941 31.186 18.2902C31.8942 20.9722 32.5923 23.6157 33.2945 26.2748C33.6026 26.1952 33.8859 26.11 34.1748 26.0519C34.3799 26.0107 34.4005 25.9233 34.3497 25.7347Z" fill="white"/>
<path d="M16.0057 23.3326C15.9206 23.0255 15.8396 22.7175 15.7466 22.3738C14.7057 22.6488 13.6752 22.9212 12.627 23.1985C12.9071 24.2626 13.1776 25.2892 13.4551 26.3427C13.8268 26.2471 14.1756 26.1569 14.5368 26.064C14.3738 25.4416 14.2246 24.8448 14.0584 24.253C14.0035 24.0576 14.0552 23.9898 14.2502 23.945C14.7991 23.8182 15.3415 23.6658 15.8881 23.5289C16.0021 23.4992 16.0369 23.4438 16.0057 23.3326Z" fill="white"/>
<path d="M33.9079 28.7509C33.7166 28.009 33.5307 27.2653 33.3316 26.5253C33.3124 26.4539 33.2062 26.3422 33.1618 26.3514C32.8748 26.4118 32.5937 26.5006 32.2998 26.5829C32.4976 27.3335 32.6889 28.0672 32.8853 28.799C32.9691 29.1116 33.0638 29.421 33.1535 29.7317C33.4584 29.6352 33.7647 29.5395 34.092 29.437C34.0292 29.2017 33.9661 28.977 33.9079 28.7509Z" fill="white"/>
<path d="M33.1551 29.7365C33.1547 29.7352 33.1542 29.7335 33.1538 29.7322C33.1525 29.7326 33.1512 29.733 33.1499 29.7335C33.1508 29.7339 33.1551 29.7365 33.1551 29.7365Z" fill="white"/>
<path d="M15.9423 11.9927C16.0678 12.0582 16.2856 11.9621 16.4587 11.9177C16.9787 11.7836 17.4969 11.6403 18.0421 11.4939C17.9588 11.163 17.88 10.8508 17.7972 10.5222C17.0817 10.7149 16.396 10.8993 15.6777 11.0925C15.7198 11.2545 15.7519 11.3858 15.7876 11.5158C15.8338 11.6829 15.8366 11.9373 15.9423 11.9927Z" fill="white"/>
<path d="M15.6269 25.9756C15.6113 25.9248 15.5051 25.8594 15.4552 25.8694C15.1733 25.928 14.8963 26.0077 14.5859 26.0878C14.6779 26.4301 14.7521 26.7404 14.8501 27.0425C14.867 27.0951 14.9906 27.1546 15.0529 27.1431C15.2845 27.1015 15.5138 27.0406 15.7377 26.9665C15.7871 26.95 15.8475 26.8429 15.837 26.7912C15.7807 26.5171 15.7102 26.2438 15.6269 25.9756Z" fill="white"/>
</svg>
